<svg width="86" height="86" viewBox="0 0 86 86" fill="none" xmlns="http://www.w3.org/2000/svg">
<circle cx="43" cy="43" r="42" fill="#12A0D7"/>
<path d="M37.5 72L32 83L37.5 84.5L44 85L50.5 84.5L56.5 83L52 72H37.5Z" stroke="black"/>
<path d="M37.5 72L32 83L37.5 84.5L44 85L50.5 84.5L56.5 83L52 72H37.5Z" fill="black" stroke="black"/>
<path d="M51 14L56.5 3L51 1.5L44.5 1L38 1.5L32 3L36.5 14L51 14Z" fill="black" stroke="black"/>
<path d="M14 34.5L3 29L1.5 34.5L0.999999 41L1.5 47.5L3 53.5L14 49L14 34.5Z" fill="black" stroke="black"/>
<path d="M72 48L83 53.5L84.5 48L85 41.5L84.5 35L83 29L72 33.5L72 48Z" fill="black" stroke="black"/>
<path d="M32.5 40.5L35.5 49H51.5L54 39.5L43 33L32.5 40.5Z" fill="black" stroke="black"/>
</svg>
