<?xml version="1.0" encoding="UTF-8"?>
<svg id="Layer_1" xmlns="http://www.w3.org/2000/svg" version="1.1" viewBox="0 0 792 612">
  <!-- Generator: Adobe Illustrator 29.2.1, SVG Export Plug-In . SVG Version: 2.1.0 Build 116)  -->
  <defs>
    <style>
      .st0 {
        fill: #005cab;
        stroke: #231f20;
        stroke-miterlimit: 10;
        stroke-width: 2px;
      }
    </style>
  </defs>
  <path class="st0" d="M562.56,294.23c0,5.34-.24,10.62-.71,15.83-.98,10.9-2.96,21.51-5.85,31.74-3.13,11.06-7.32,21.68-12.46,31.74-3.75,7.34-8,14.38-12.72,21.07v-31.56c3.29-6.83,6.11-13.92,8.42-21.25,3.19-10.17,5.39-20.79,6.48-31.74.52-5.2.78-10.49.78-15.83s-.27-10.68-.79-15.91c-1.09-10.95-3.29-21.56-6.49-31.73-2.3-7.3-5.12-14.38-8.4-21.18-1.74-3.6-3.61-7.12-5.61-10.56h-18.72c6.56,9.79,11.94,20.44,15.92,31.74,3.57,10.1,6.03,20.73,7.24,31.73h-48.71c-1.87-11.4-5.79-22.1-11.38-31.73-.71-1.23-1.45-2.45-2.21-3.64-7.21-11.22-16.74-20.82-27.9-28.1-1.26-.83-2.54-1.62-3.84-2.37v18.37c5.96,4.48,11.27,9.78,15.75,15.74,6.95,9.22,11.93,20.01,14.31,31.73,1.05,5.14,1.6,10.46,1.6,15.91s-.54,10.71-1.58,15.83c-2.38,11.73-7.34,22.51-14.28,31.74-4.49,5.99-9.82,11.31-15.8,15.81v-22.8c6.1-7.05,10.65-15.48,13.13-24.75,1.4-5.2,2.14-10.67,2.14-16.31,0-5.32-.66-10.5-1.91-15.43-.3-1.2-.64-2.4-1.02-3.57-.17-.54-.35-1.08-.54-1.62-.03-.09-.06-.17-.09-.26-.18-.54-.38-1.06-.58-1.59-.02-.05-.04-.11-.06-.16-.17-.45-.35-.9-.54-1.34-.09-.24-.2-.48-.3-.72-.07-.15-.14-.31-.21-.46-.16-.39-.34-.78-.52-1.16-.03-.09-.08-.19-.12-.28-.03-.05-.05-.11-.08-.17-.02-.05-.05-.1-.08-.15-.29-.64-.6-1.27-.94-1.9-.18-.35-.36-.7-.55-1.04-.19-.35-.37-.69-.57-1.04-.38-.69-.78-1.36-1.2-2.03-.21-.36-.44-.72-.67-1.07-.23-.36-.46-.71-.7-1.06-.12-.17-.24-.35-.36-.52-.11-.18-.23-.35-.36-.52-.26-.37-.53-.75-.81-1.12-.01-.03-.03-.05-.05-.08-.39-.53-.79-1.05-1.21-1.57-.12-.16-.26-.33-.39-.5-.13-.16-.27-.33-.4-.49-.33-.41-.67-.81-1.01-1.21-1.87-2.17-3.89-4.2-6.04-6.1-7.27-6.4-16.03-11.15-25.7-13.66v-48.67c11.21,1.59,21.88,4.87,31.74,9.58,11.17,5.3,21.31,12.44,30.04,21.01.58.55,1.15,1.12,1.7,1.7,8.54,8.73,15.65,18.87,20.93,30.04h17.32c-1.91-4.7-4.09-9.26-6.52-13.66-3.53-6.38-7.6-12.43-12.14-18.08-5.8-7.22-12.37-13.78-19.59-19.58v-12.16h55.28c2.87,3.46,5.6,7.05,8.19,10.73,4.7,6.67,8.95,13.69,12.69,21.01,5.14,10.05,9.34,20.67,12.47,31.74,2.89,10.23,4.88,20.83,5.86,31.73.48,5.24.72,10.55.72,15.91Z"/>
  <path class="st0" d="M372.13,184.26v48.7c-9.63,2.51-18.36,7.25-25.6,13.63-2.19,1.93-4.24,4.01-6.14,6.22-.3.34-.59.69-.87,1.04-.19.23-.37.45-.55.68-.13.15-.25.3-.37.46-.29.36-.58.73-.85,1.11-.2.26-.4.53-.59.79-.47.65-.92,1.3-1.36,1.97-.4.59-.78,1.19-1.16,1.8-.85,1.35-1.64,2.73-2.37,4.14-.18.36-.36.71-.54,1.07-.18.35-.36.71-.52,1.08-.35.72-.67,1.45-.99,2.19-.16.37-.31.73-.45,1.1-.08.19-.16.38-.23.57s-.15.38-.22.57c-.15.39-.29.77-.43,1.16-.11.3-.22.61-.32.92-.06.16-.11.32-.16.48-.08.24-.16.48-.24.73-.08.24-.16.49-.22.73-.12.36-.23.73-.33,1.09-.01.03-.02.06-.02.09-.17.58-.32,1.16-.47,1.74-1.25,4.93-1.91,10.11-1.91,15.43,0,5.64.74,11.11,2.14,16.31,2.47,9.22,6.98,17.6,13.03,24.63v22.92c-5.98-4.5-11.31-9.82-15.8-15.81-6.94-9.23-11.9-20.01-14.28-31.74-1.04-5.12-1.58-10.41-1.58-15.83s.55-10.77,1.6-15.91c2.38-11.72,7.36-22.51,14.31-31.73,4.48-5.96,9.79-11.26,15.75-15.74v-18.31c-1.27.73-2.51,1.51-3.74,2.31-11.21,7.32-20.77,16.96-27.99,28.25-.73,1.15-1.44,2.31-2.12,3.49-5.59,9.63-9.51,20.33-11.38,31.73h-48.81c1.21-11,3.67-21.63,7.24-31.73,3.98-11.3,9.36-21.95,15.92-31.74h-18.62c-2.04,3.5-3.94,7.09-5.71,10.76-3.24,6.74-6.02,13.75-8.3,20.98-3.2,10.17-5.4,20.78-6.49,31.73-.52,5.23-.79,10.54-.79,15.91s.26,10.63.78,15.83c1.09,10.95,3.29,21.57,6.48,31.74,2.28,7.26,5.07,14.28,8.32,21.05v31.78c-4.72-6.7-8.98-13.75-12.73-21.09-5.14-10.06-9.33-20.68-12.46-31.74-2.89-10.23-4.87-20.84-5.85-31.74-.4-4.48-.64-9-.7-13.57v-4.52c.06-4.59.3-9.15.71-13.65.98-10.9,2.97-21.5,5.86-31.73,3.13-11.07,7.33-21.69,12.47-31.74,3.75-7.33,7.99-14.35,12.7-21.03,2.59-3.68,5.32-7.25,8.18-10.71h55.3v12.23c-7.18,5.78-13.72,12.32-19.5,19.51-4.58,5.7-8.68,11.81-12.24,18.26-2.39,4.34-4.54,8.84-6.42,13.48h17.21c5.29-11.18,12.4-21.32,20.95-30.06.55-.57,1.11-1.13,1.68-1.68,8.73-8.58,18.87-15.71,30.05-21.01,9.86-4.71,20.53-7.99,31.74-9.58Z"/>
  <path class="st0" d="M435.61,252.69v82.12c-1.02,1.18-2.08,2.32-3.19,3.42-1.24,1.24-2.53,2.43-3.88,3.57h-8.8v-59.14l-15.87,15.87v6.33h-31.74v-6.71l-16.11-16.11v59.76h-8.46c-2.58-2.18-4.98-4.56-7.17-7.11v-81.88c1.9-2.21,3.95-4.29,6.14-6.22h9.49v15.25l32.17,32.17,15.68-15.68h0s.01,0,.01,0l15.86-15.86v-15.87h9.83c2.15,1.9,4.17,3.93,6.04,6.1Z"/>
</svg>