<svg width="285" height="503" viewBox="0 0 285 503" fill="none" xmlns="http://www.w3.org/2000/svg">
<rect x="96" y="422" width="14" height="39" fill="#FFDBAC"/>
<rect x="179" y="421" width="14" height="40" fill="#FFDBAC"/>
<circle cx="147.5" cy="93.5" r="71.5" fill="#FFDBAC"/>
<rect x="127" y="133" width="39" height="63" fill="#FFDBAC"/>
<rect x="83" y="172" width="127" height="199" fill="#12A0D7"/>
<ellipse cx="120.5" cy="74.5" rx="18.5" ry="8.5" fill="white"/>
<ellipse cx="173" cy="74.5" rx="18" ry="8.5" fill="white"/>
<circle cx="122.5" cy="74.5" r="4.5" fill="black"/>
<circle cx="173.5" cy="74.5" r="4.5" fill="#1A1A1A"/>
<rect x="83" y="371" width="43" height="51" fill="#FBFBFB"/>
<rect x="165" y="371" width="42" height="51" fill="#FBFBFB"/>
<path d="M136 213.714H139.429V217.143H136V213.714ZM139.429 213.714H142.857V217.143H139.429V213.714ZM142.857 213.714H146.286V217.143H142.857V213.714ZM146.286 213.714H149.714V217.143H146.286V213.714ZM149.714 213.714H153.143V217.143H149.714V213.714ZM153.143 213.714H156.571V217.143H153.143V213.714ZM153.143 217.143H156.571V220.571H153.143V217.143ZM149.714 217.143H153.143V220.571H149.714V217.143ZM146.286 217.143H149.714V220.571H146.286V217.143ZM142.857 217.143H146.286V220.571H142.857V217.143ZM139.429 217.143H142.857V220.571H139.429V217.143ZM136 217.143H139.429V220.571H136V217.143ZM149.714 220.571H153.143V224H149.714V220.571ZM153.143 220.571H156.571V224H153.143V220.571ZM153.143 224H156.571V227.429H153.143V224ZM149.714 224H153.143V227.429H149.714V224ZM153.143 227.429H156.571V230.857H153.143V227.429ZM149.714 227.429H153.143V230.857H149.714V227.429ZM146.286 227.429H149.714V230.857H146.286V227.429ZM149.714 234.286H153.143V237.714H149.714V234.286ZM149.714 230.857H153.143V234.286H149.714V230.857ZM146.286 230.857H149.714V234.286H146.286V230.857ZM142.857 230.857H146.286V234.286H142.857V230.857ZM142.857 234.286H146.286V237.714H142.857V234.286ZM146.286 234.286H149.714V237.714H146.286V234.286ZM146.286 237.714H149.714V241.143H146.286V237.714ZM146.286 241.143H149.714V244.571H146.286V241.143ZM146.286 244.571H149.714V248H146.286V244.571ZM142.857 244.571H146.286V248H142.857V244.571ZM142.857 241.143H146.286V244.571H142.857V241.143ZM142.857 237.714H146.286V241.143H142.857V237.714Z" fill="black"/>
<path d="M85 493.214V461H121V493.214L103.72 502L85 493.214Z" fill="black" stroke="black"/>
<path d="M169 493.214V461H206V493.214L188.24 502L169 493.214Z" fill="black" stroke="black"/>
<path d="M177 107H118L126.85 129H163.725L177 107Z" fill="white" stroke="black"/>
<circle cx="113.5" cy="28.5" r="9.5" fill="#2D2C2C"/>
<circle cx="104.5" cy="37.5" r="9.5" fill="#2D2C2C"/>
<circle cx="91.5" cy="45.5" r="9.5" fill="#2D2C2C"/>
<circle cx="124.5" cy="31.5" r="9.5" fill="#2D2C2C"/>
<circle cx="143.5" cy="31.5" r="9.5" fill="#2D2C2C"/>
<circle cx="129.5" cy="18.5" r="9.5" fill="#2D2C2C"/>
<circle cx="117.5" cy="12.5" r="9.5" fill="#2D2C2C"/>
<circle cx="135.5" cy="9.5" r="9.5" fill="#2D2C2C"/>
<circle cx="146.5" cy="9.5" r="9.5" fill="#2D2C2C"/>
<ellipse cx="157" cy="12.5" rx="9" ry="9.5" fill="#2D2C2C"/>
<circle cx="173.5" cy="12.5" r="9.5" fill="#2D2C2C"/>
<circle cx="184.5" cy="21.5" r="9.5" fill="#2D2C2C"/>
<circle cx="196.5" cy="22.5" r="9.5" fill="#2D2C2C"/>
<circle cx="189.5" cy="12.5" r="9.5" fill="#2D2C2C"/>
<circle cx="170.5" cy="19.5" r="9.5" fill="#2D2C2C"/>
<circle cx="180.5" cy="22.5" r="9.5" fill="#2D2C2C"/>
<circle cx="164.5" cy="18.5" r="9.5" fill="#2D2C2C"/>
<circle cx="143.5" cy="21.5" r="9.5" fill="#2D2C2C"/>
<circle cx="107.5" cy="22.5" r="9.5" fill="#2D2C2C"/>
<circle cx="104.5" cy="12.5" r="9.5" fill="#2D2C2C"/>
<circle cx="91.5" cy="31.5" r="9.5" fill="#2D2C2C"/>
<circle cx="92.5" cy="16.5" r="9.5" fill="#2D2C2C"/>
<circle cx="129.5" cy="28.5" r="9.5" fill="#2D2C2C"/>
<circle cx="145.5" cy="31.5" r="9.5" fill="#2D2C2C"/>
<circle cx="154.5" cy="28.5" r="9.5" fill="#2D2C2C"/>
<circle cx="165.5" cy="28.5" r="9.5" fill="#2D2C2C"/>
<circle cx="178.5" cy="31.5" r="9.5" fill="#2D2C2C"/>
<circle cx="196.5" cy="37.5" r="9.5" fill="#2D2C2C"/>
<circle cx="205.5" cy="47.5" r="9.5" fill="#2D2C2C"/>
<circle cx="209.5" cy="35.5" r="9.5" fill="#2D2C2C"/>
<circle cx="206.5" cy="28.5" r="9.5" fill="#2D2C2C"/>
<circle cx="206.5" cy="16.5" r="9.5" fill="#2D2C2C"/>
<circle cx="186.5" cy="29.5" r="9.5" fill="#2D2C2C"/>
<ellipse cx="54.0704" cy="234.848" rx="60" ry="13" transform="rotate(-40.4937 54.0704 234.848)" fill="#12A0D7"/>
<ellipse cx="230.835" cy="230.146" rx="60" ry="13" transform="rotate(40.9551 230.835 230.146)" fill="#12A0D7"/>
<circle cx="270.5" cy="264.5" r="14.5" fill="#FFDBAC"/>
<circle cx="14.5" cy="270.5" r="14.5" fill="#FFDBAC"/>
<path d="M137.421 284.571H139.35V286.5H137.421V284.571ZM135.492 284.571H137.421V286.5H135.492V284.571ZM135.492 282.643H137.421V284.571H135.492V282.643ZM137.421 282.643H139.35V284.571H137.421V282.643ZM135.492 280.714H137.421V282.643H135.492V280.714ZM133.564 280.714H135.492V282.643H133.564V280.714ZM133.564 282.643H135.492V284.571H133.564V282.643ZM131.635 282.643H133.564V284.571H131.635V282.643ZM129.707 282.643H131.635V284.571H129.707V282.643ZM129.707 280.714H131.635V282.643H129.707V280.714ZM127.778 280.714H129.707V282.643H127.778V280.714ZM131.635 280.714H133.564V282.643H131.635V280.714ZM127.778 282.643H129.707V284.571H127.778V282.643ZM125.85 282.643H127.778V284.571H125.85V282.643ZM125.85 284.571H127.778V286.5H125.85V284.571ZM127.778 284.571H129.707V286.5H127.778V284.571ZM127.778 286.5H129.707V288.429H127.778V286.5ZM127.778 288.429H129.707V290.357H127.778V288.429ZM125.85 288.429H127.778V290.357H125.85V288.429ZM125.85 286.5H127.778V288.429H125.85V286.5ZM127.778 290.357H129.707V292.286H127.778V290.357ZM129.707 290.357H131.635V292.286H129.707V290.357ZM129.707 288.429H131.635V290.357H129.707V288.429ZM131.635 288.429H133.564V290.357H131.635V288.429ZM133.564 288.429H135.492V290.357H133.564V288.429ZM135.492 288.429H137.421V290.357H135.492V288.429ZM135.492 290.357H137.421V292.286H135.492V290.357ZM133.564 290.357H135.492V292.286H133.564V290.357ZM131.635 290.357H133.564V292.286H131.635V290.357ZM137.421 290.357H139.35V292.286H137.421V290.357ZM137.421 292.286H139.35V294.214H137.421V292.286ZM135.492 292.286H137.421V294.214H135.492V292.286ZM133.564 296.143H135.492V298.071H133.564V296.143ZM135.492 296.143H137.421V298.071H135.492V296.143ZM135.492 294.214H137.421V296.143H135.492V294.214ZM137.421 294.214H139.35V296.143H137.421V294.214ZM137.421 296.143H139.35V298.071H137.421V296.143ZM135.492 298.071H137.421V300H135.492V298.071ZM133.564 298.071H135.492V300H133.564V298.071ZM131.635 298.071H133.564V300H131.635V298.071ZM129.707 298.071H131.635V300H129.707V298.071ZM127.778 298.071H129.707V300H127.778V298.071ZM127.778 296.143H129.707V298.071H127.778V296.143ZM129.707 296.143H131.635V298.071H129.707V296.143ZM131.635 296.143H133.564V298.071H131.635V296.143ZM125.85 296.143H127.778V298.071H125.85V296.143ZM125.85 294.214H127.778V296.143H125.85V294.214ZM127.778 294.214H129.707V296.143H127.778V294.214ZM152.855 284.571H154.783V286.5H152.855V284.571ZM150.926 284.571H152.855V286.5H150.926V284.571ZM150.926 282.643H152.855V284.571H150.926V282.643ZM152.855 282.643H154.783V284.571H152.855V282.643ZM150.926 280.714H152.855V282.643H150.926V280.714ZM148.997 280.714H150.926V282.643H148.997V280.714ZM148.997 282.643H150.926V284.571H148.997V282.643ZM147.069 282.643H148.997V284.571H147.069V282.643ZM145.14 282.643H147.069V284.571H145.14V282.643ZM145.14 280.714H147.069V282.643H145.14V280.714ZM143.212 280.714H145.14V282.643H143.212V280.714ZM147.069 280.714H148.997V282.643H147.069V280.714ZM143.212 282.643H145.14V284.571H143.212V282.643ZM141.283 282.643H143.212V284.571H141.283V282.643ZM141.283 284.571H143.212V286.5H141.283V284.571ZM143.212 284.571H145.14V286.5H143.212V284.571ZM143.212 286.5H145.14V288.429H143.212V286.5ZM143.212 288.429H145.14V290.357H143.212V288.429ZM141.283 288.429H143.212V290.357H141.283V288.429ZM141.283 286.5H143.212V288.429H141.283V286.5ZM143.212 290.357H145.14V292.286H143.212V290.357ZM145.14 290.357H147.069V292.286H145.14V290.357ZM145.14 288.429H147.069V290.357H145.14V288.429ZM147.069 288.429H148.997V290.357H147.069V288.429ZM148.997 288.429H150.926V290.357H148.997V288.429ZM150.926 288.429H152.855V290.357H150.926V288.429ZM150.926 290.357H152.855V292.286H150.926V290.357ZM148.997 290.357H150.926V292.286H148.997V290.357ZM147.069 290.357H148.997V292.286H147.069V290.357ZM152.855 290.357H154.783V292.286H152.855V290.357ZM152.855 292.286H154.783V294.214H152.855V292.286ZM150.926 292.286H152.855V294.214H150.926V292.286ZM148.997 296.143H150.926V298.071H148.997V296.143ZM150.926 296.143H152.855V298.071H150.926V296.143ZM150.926 294.214H152.855V296.143H150.926V294.214ZM152.855 294.214H154.783V296.143H152.855V294.214ZM152.855 296.143H154.783V298.071H152.855V296.143ZM150.926 298.071H152.855V300H150.926V298.071ZM148.997 298.071H150.926V300H148.997V298.071ZM147.069 298.071H148.997V300H147.069V298.071ZM145.14 298.071H147.069V300H145.14V298.071ZM143.212 298.071H145.14V300H143.212V298.071ZM143.212 296.143H145.14V298.071H143.212V296.143ZM145.14 296.143H147.069V298.071H145.14V296.143ZM147.069 296.143H148.997V298.071H147.069V296.143ZM141.283 296.143H143.212V298.071H141.283V296.143ZM141.283 294.214H143.212V296.143H141.283V294.214ZM143.212 294.214H145.14V296.143H143.212V294.214ZM160.574 280.714H162.503V282.643H160.574V280.714ZM158.645 280.714H160.574V282.643H158.645V280.714ZM158.645 282.643H160.574V284.571H158.645V282.643ZM160.574 282.643H162.503V284.571H160.574V282.643ZM162.503 282.643H164.431V284.571H162.503V282.643ZM162.503 280.714H164.431V282.643H162.503V280.714ZM164.431 280.714H166.36V282.643H164.431V280.714ZM166.36 280.714H168.288V282.643H166.36V280.714ZM166.36 282.643H168.288V284.571H166.36V282.643ZM164.431 282.643H166.36V284.571H164.431V282.643ZM166.36 284.571H168.288V286.5H166.36V284.571ZM168.288 282.643H170.217V284.571H168.288V282.643ZM168.288 284.571H170.217V286.5H168.288V284.571ZM168.288 294.214H170.217V296.143H168.288V294.214ZM168.288 296.143H170.217V298.071H168.288V296.143ZM166.36 296.143H168.288V298.071H166.36V296.143ZM166.36 294.214H168.288V296.143H166.36V294.214ZM164.431 296.143H166.36V298.071H164.431V296.143ZM166.36 298.071H168.288V300H166.36V298.071ZM164.431 298.071H166.36V300H164.431V298.071ZM162.503 298.071H164.431V300H162.503V298.071ZM162.503 296.143H164.431V298.071H162.503V296.143ZM160.574 298.071H162.503V300H160.574V298.071ZM158.645 298.071H160.574V300H158.645V298.071ZM158.645 296.143H160.574V298.071H158.645V296.143ZM160.574 296.143H162.503V298.071H160.574V296.143ZM160.574 294.214H162.503V296.143H160.574V294.214ZM158.645 294.214H160.574V296.143H158.645V294.214ZM156.717 296.143H158.645V298.071H156.717V296.143ZM156.717 294.214H158.645V296.143H156.717V294.214ZM156.717 292.286H158.645V294.214H156.717V292.286ZM156.717 290.357H158.645V292.286H156.717V290.357ZM156.717 288.429H158.645V290.357H156.717V288.429ZM156.717 286.5H158.645V288.429H156.717V286.5ZM156.717 284.571H158.645V286.5H156.717V284.571ZM158.645 284.571H160.574V286.5H158.645V284.571ZM156.717 282.643H158.645V284.571H156.717V282.643ZM160.574 284.571H162.503V286.5H160.574V284.571ZM158.645 286.5H160.574V288.429H158.645V286.5ZM158.645 288.429H160.574V290.357H158.645V288.429ZM158.645 290.357H160.574V292.286H158.645V290.357ZM158.645 292.286H160.574V294.214H158.645V292.286ZM117.151 329.357H119.08V331.286H117.151V329.357ZM117.151 327.429H119.08V329.357H117.151V327.429ZM119.08 327.429H121.008V329.357H119.08V327.429ZM119.08 329.357H121.008V331.286H119.08V329.357ZM119.08 331.286H121.008V333.214H119.08V331.286ZM117.151 331.286H119.08V333.214H117.151V331.286ZM117.151 323.571H119.08V325.5H117.151V323.571ZM117.151 325.5H119.08V327.429H117.151V325.5ZM115.222 327.429H117.151V329.357H115.222V327.429ZM115.222 325.5H117.151V327.429H115.222V325.5ZM115.222 323.571H117.151V325.5H115.222V323.571ZM111.365 319.714H113.294V321.643H111.365V319.714ZM113.294 319.714H115.222V321.643H113.294V319.714ZM115.222 319.714H117.151V321.643H115.222V319.714ZM115.222 321.643H117.151V323.571H115.222V321.643ZM113.294 321.643H115.222V323.571H113.294V321.643ZM111.365 321.643H113.294V323.571H111.365V321.643ZM111.365 323.571H113.294V325.5H111.365V323.571ZM113.294 323.571H115.222V325.5H113.294V323.571ZM113.294 325.5H115.222V327.429H113.294V325.5ZM113.294 327.429H115.222V329.357H113.294V327.429ZM111.365 327.429H113.294V329.357H111.365V327.429ZM111.365 325.5H113.294V327.429H111.365V325.5ZM111.365 329.357H113.294V331.286H111.365V329.357ZM113.294 329.357H115.222V331.286H113.294V329.357ZM113.294 331.286H115.222V333.214H113.294V331.286ZM113.294 333.214H115.222V335.143H113.294V333.214ZM113.294 335.143H115.222V337.071H113.294V335.143ZM113.294 337.071H115.222V339H113.294V337.071ZM111.365 337.071H113.294V339H111.365V337.071ZM111.365 335.143H113.294V337.071H111.365V335.143ZM111.365 333.214H113.294V335.143H111.365V333.214ZM111.365 331.286H113.294V333.214H111.365V331.286ZM119.08 333.214H121.008V335.143H119.08V333.214ZM119.08 335.143H121.008V337.071H119.08V335.143ZM121.008 333.214H122.937V335.143H121.008V333.214ZM121.008 331.286H122.937V333.214H121.008V331.286ZM121.008 335.143H122.937V337.071H121.008V335.143ZM121.008 337.071H122.937V339H121.008V337.071ZM122.937 337.071H124.865V339H122.937V337.071ZM124.865 337.071H126.794V339H124.865V337.071ZM124.865 335.143H126.794V337.071H124.865V335.143ZM124.865 333.214H126.794V335.143H124.865V333.214ZM122.937 333.214H124.865V335.143H122.937V333.214ZM122.937 335.143H124.865V337.071H122.937V335.143ZM122.937 331.286H124.865V333.214H122.937V331.286ZM124.865 329.357H126.794V331.286H124.865V329.357ZM124.865 327.429H126.794V329.357H124.865V327.429ZM124.865 331.286H126.794V333.214H124.865V331.286ZM122.937 329.357H124.865V331.286H122.937V329.357ZM122.937 327.429H124.865V329.357H122.937V327.429ZM122.937 325.5H124.865V327.429H122.937V325.5ZM124.865 325.5H126.794V327.429H124.865V325.5ZM124.865 323.571H126.794V325.5H124.865V323.571ZM122.937 319.714H124.865V321.643H122.937V319.714ZM124.865 319.714H126.794V321.643H124.865V319.714ZM124.865 321.643H126.794V323.571H124.865V321.643ZM122.937 321.643H124.865V323.571H122.937V321.643ZM122.937 323.571H124.865V325.5H122.937V323.571ZM140.304 339H138.375V337.071H140.304V339ZM140.304 337.071H138.375V335.143H140.304V337.071ZM138.375 337.071H136.447V335.143H138.375V337.071ZM136.447 339H134.518V337.071H136.447V339ZM134.518 339H132.59V337.071H134.518V339ZM132.59 339H130.661V337.071H132.59V339ZM132.59 337.071H130.661V335.143H132.59V337.071ZM134.518 337.071H132.59V335.143H134.518V337.071ZM130.661 337.071H128.732V335.143H130.661V337.071ZM130.661 335.143H128.732V333.214H130.661V335.143ZM130.661 327.429H128.732V325.5H130.661V327.429ZM132.59 327.429H130.661V325.5H132.59V327.429ZM132.59 335.143H130.661V333.214H132.59V335.143ZM134.518 327.429H132.59V325.5H134.518V327.429ZM132.59 325.5H130.661V323.571H132.59V325.5ZM134.518 325.5H132.59V323.571H134.518V325.5ZM136.447 325.5H134.518V323.571H136.447V325.5ZM138.375 325.5H136.447V323.571H138.375V325.5ZM140.304 325.5H138.375V323.571H140.304V325.5ZM140.304 327.429H138.375V325.5H140.304V327.429ZM138.375 327.429H136.447V325.5H138.375V327.429ZM140.304 329.357H138.375V327.429H140.304V329.357ZM142.232 327.429H140.304V325.5H142.232V327.429ZM142.232 329.357H140.304V327.429H142.232V329.357ZM142.232 331.286H140.304V329.357H142.232V331.286ZM142.232 333.214H140.304V331.286H142.232V333.214ZM142.232 335.143H140.304V333.214H142.232V335.143ZM142.232 337.071H140.304V335.143H142.232V337.071ZM140.304 335.143H138.375V333.214H140.304V335.143ZM140.304 333.214H138.375V331.286H140.304V333.214ZM140.304 331.286H138.375V329.357H140.304V331.286ZM136.447 327.429H134.518V325.5H136.447V327.429ZM136.447 337.071H134.518V335.143H136.447V337.071ZM140.304 337.071H142.232V339H140.304V337.071ZM136.447 329.357H138.375V331.286H136.447V329.357ZM134.518 329.357H136.447V331.286H134.518V329.357ZM132.59 329.357H134.518V331.286H132.59V329.357ZM130.661 329.357H132.59V331.286H130.661V329.357ZM128.732 331.286H130.661V333.214H128.732V331.286ZM130.661 331.286H132.59V333.214H130.661V331.286ZM136.447 331.286H138.375V333.214H136.447V331.286ZM134.518 331.286H136.447V333.214H134.518V331.286ZM132.59 331.286H134.518V333.214H132.59V331.286ZM144.166 325.5H146.095V327.429H144.166V325.5ZM144.166 323.571H146.095V325.5H144.166V323.571ZM146.095 323.571H148.023V325.5H146.095V323.571ZM146.095 325.5H148.023V327.429H146.095V325.5ZM146.095 327.429H148.023V329.357H146.095V327.429ZM146.095 329.357H148.023V331.286H146.095V329.357ZM146.095 331.286H148.023V333.214H146.095V331.286ZM144.166 331.286H146.095V333.214H144.166V331.286ZM144.166 329.357H146.095V331.286H144.166V329.357ZM144.166 327.429H146.095V329.357H144.166V327.429ZM144.166 333.214H146.095V335.143H144.166V333.214ZM146.095 333.214H148.023V335.143H146.095V333.214ZM146.095 335.143H148.023V337.071H146.095V335.143ZM146.095 337.071H148.023V339H146.095V337.071ZM144.166 337.071H146.095V339H144.166V337.071ZM144.166 335.143H146.095V337.071H144.166V335.143ZM153.809 337.071H155.737V339H153.809V337.071ZM155.737 335.143H157.666V337.071H155.737V335.143ZM155.737 333.214H157.666V335.143H155.737V333.214ZM155.737 331.286H157.666V333.214H155.737V331.286ZM155.737 329.357H157.666V331.286H155.737V329.357ZM155.737 327.429H157.666V329.357H155.737V327.429ZM155.737 325.5H157.666V327.429H155.737V325.5ZM153.809 329.357H155.737V331.286H153.809V329.357ZM153.809 331.286H155.737V333.214H153.809V331.286ZM153.809 333.214H155.737V335.143H153.809V333.214ZM153.809 335.143H155.737V337.071H153.809V335.143ZM153.809 327.429H155.737V329.357H153.809V327.429ZM148.023 325.5H149.952V327.429H148.023V325.5ZM149.952 325.5H151.88V327.429H149.952V325.5ZM151.88 325.5H153.809V327.429H151.88V325.5ZM151.88 323.571H153.809V325.5H151.88V323.571ZM153.809 323.571H155.737V325.5H153.809V323.571ZM153.809 325.5H155.737V327.429H153.809V325.5ZM149.952 323.571H151.88V325.5H149.952V323.571ZM148.023 337.071H149.952V339H148.023V337.071ZM149.952 337.071H151.88V339H149.952V337.071ZM151.88 337.071H153.809V339H151.88V337.071ZM151.88 335.143H153.809V337.071H151.88V335.143ZM149.952 335.143H151.88V337.071H149.952V335.143ZM148.023 335.143H149.952V337.071H148.023V335.143ZM144.166 339H146.095V340.929H144.166V339ZM146.095 339H148.023V340.929H146.095V339ZM146.095 340.929H148.023V342.857H146.095V340.929ZM144.166 340.929H146.095V342.857H144.166V340.929ZM163.457 323.571H165.385V325.5H163.457V323.571ZM161.528 323.571H163.457V325.5H161.528V323.571ZM161.528 325.5H163.457V327.429H161.528V325.5ZM163.457 325.5H165.385V327.429H163.457V325.5ZM165.385 323.571H167.314V325.5H165.385V323.571ZM167.314 323.571H169.242V325.5H167.314V323.571ZM169.242 323.571H171.171V325.5H169.242V323.571ZM169.242 325.5H171.171V327.429H169.242V325.5ZM167.314 325.5H169.242V327.429H167.314V325.5ZM169.242 329.357H171.171V331.286H169.242V329.357ZM171.171 325.5H173.1V327.429H171.171V325.5ZM171.171 327.429H173.1V329.357H171.171V327.429ZM171.171 329.357H173.1V331.286H171.171V329.357ZM171.171 331.286H173.1V333.214H171.171V331.286ZM171.171 333.214H173.1V335.143H171.171V333.214ZM171.171 335.143H173.1V337.071H171.171V335.143ZM169.242 335.143H171.171V337.071H169.242V335.143ZM169.242 333.214H171.171V335.143H169.242V333.214ZM169.242 331.286H171.171V333.214H169.242V331.286ZM169.242 327.429H171.171V329.357H169.242V327.429ZM167.314 335.143H169.242V337.071H167.314V335.143ZM169.242 337.071H171.171V339H169.242V337.071ZM167.314 337.071H169.242V339H167.314V337.071ZM165.385 337.071H167.314V339H165.385V337.071ZM163.457 337.071H165.385V339H163.457V337.071ZM161.528 337.071H163.457V339H161.528V337.071ZM161.528 335.143H163.457V337.071H161.528V335.143ZM163.457 335.143H165.385V337.071H163.457V335.143ZM161.528 333.214H163.457V335.143H161.528V333.214ZM159.6 335.143H161.528V337.071H159.6V335.143ZM159.6 333.214H161.528V335.143H159.6V333.214ZM159.6 331.286H161.528V333.214H159.6V331.286ZM159.6 329.357H161.528V331.286H159.6V329.357ZM159.6 327.429H161.528V329.357H159.6V327.429ZM159.6 325.5H161.528V327.429H159.6V325.5ZM161.528 327.429H163.457V329.357H161.528V327.429ZM161.528 329.357H163.457V331.286H161.528V329.357ZM161.528 331.286H163.457V333.214H161.528V331.286ZM165.385 335.143H167.314V337.071H165.385V335.143ZM165.385 325.5H167.314V327.429H165.385V325.5ZM175.033 319.714H176.962V321.643H175.033V319.714ZM176.962 319.714H178.89V321.643H176.962V319.714ZM176.962 321.643H178.89V323.571H176.962V321.643ZM176.962 323.571H178.89V325.5H176.962V323.571ZM176.962 325.5H178.89V327.429H176.962V325.5ZM176.962 327.429H178.89V329.357H176.962V327.429ZM176.962 329.357H178.89V331.286H176.962V329.357ZM175.033 329.357H176.962V331.286H175.033V329.357ZM175.033 331.286H176.962V333.214H175.033V331.286ZM175.033 333.214H176.962V335.143H175.033V333.214ZM175.033 335.143H176.962V337.071H175.033V335.143ZM175.033 337.071H176.962V339H175.033V337.071ZM176.962 337.071H178.89V339H176.962V337.071ZM176.962 335.143H178.89V337.071H176.962V335.143ZM176.962 333.214H178.89V335.143H176.962V333.214ZM176.962 331.286H178.89V333.214H176.962V331.286ZM175.033 327.429H176.962V329.357H175.033V327.429ZM175.033 325.5H176.962V327.429H175.033V325.5ZM175.033 323.571H176.962V325.5H175.033V323.571ZM175.033 321.643H176.962V323.571H175.033V321.643ZM180.834 319.714H184.691V323.571H180.834V319.714ZM180.834 325.5H184.691V339H180.834V325.5Z" fill="black"/>
<path d="M183.25 380.714H185.179V382.643H183.25V380.714ZM185.179 380.714H187.107V382.643H185.179V380.714ZM187.107 380.714H189.036V382.643H187.107V380.714ZM189.036 380.714H190.964V382.643H189.036V380.714ZM190.964 380.714H192.893V382.643H190.964V380.714ZM192.893 380.714H194.821V382.643H192.893V380.714ZM192.893 382.643H194.821V384.571H192.893V382.643ZM190.964 382.643H192.893V384.571H190.964V382.643ZM189.036 382.643H190.964V384.571H189.036V382.643ZM187.107 382.643H189.036V384.571H187.107V382.643ZM185.179 382.643H187.107V384.571H185.179V382.643ZM183.25 382.643H185.179V384.571H183.25V382.643ZM190.964 384.571H192.893V386.5H190.964V384.571ZM192.893 384.571H194.821V386.5H192.893V384.571ZM192.893 386.5H194.821V388.429H192.893V386.5ZM190.964 386.5H192.893V388.429H190.964V386.5ZM192.893 388.429H194.821V390.357H192.893V388.429ZM190.964 388.429H192.893V390.357H190.964V388.429ZM189.036 388.429H190.964V390.357H189.036V388.429ZM190.964 392.286H192.893V394.214H190.964V392.286ZM190.964 390.357H192.893V392.286H190.964V390.357ZM189.036 390.357H190.964V392.286H189.036V390.357ZM187.107 390.357H189.036V392.286H187.107V390.357ZM187.107 392.286H189.036V394.214H187.107V392.286ZM189.036 392.286H190.964V394.214H189.036V392.286ZM189.036 394.214H190.964V396.143H189.036V394.214ZM189.036 396.143H190.964V398.071H189.036V396.143ZM189.036 398.071H190.964V400H189.036V398.071ZM187.107 398.071H189.036V400H187.107V398.071ZM187.107 396.143H189.036V398.071H187.107V396.143ZM187.107 394.214H189.036V396.143H187.107V394.214Z" fill="black"/>
<path d="M104 60C109.085 60 113.03 58 118.5 58C123.556 58 128.194 61 133 61" stroke="black" stroke-width="3" stroke-linecap="round"/>
<path d="M187 60C181.915 60 177.97 58 172.5 58C167.444 58 162.806 61 158 61" stroke="black" stroke-width="3" stroke-linecap="round"/>
<rect x="137" y="133" width="19" height="6" fill="black"/>
</svg>
